Coordinates
version=1
nRows=65
nColumns=12
inDegrees=yes

Units are S.I. units (second, meters, Newtons, ...)
Angles are in degrees

endheader
time	SC_y	SC_z	SC_x	AC_y	AC_z	AC_x	GH_y	GH_z	GH_yy	EL_x	PS_y
       0.0              -57.07          32.29          51.79           32.2          7.333         -17.45          158.1          19.86         -129.7          41.51          96.49
   0.04917              -57.07          32.29          51.79          32.21          7.333         -17.45          158.1          19.86         -129.7          41.51           96.5
   0.09835              -57.07          32.29          51.79          32.21          7.332         -17.44          158.1          19.87         -129.7          41.52           96.5
    0.1475              -57.07          32.29          51.79          32.22          7.331         -17.44          158.0          19.88         -129.7          41.52          96.51
    0.1967              -57.07          32.29          51.79          32.22          7.331         -17.44          158.0          19.88         -129.7          41.52          96.52
    0.2459              -57.07          32.28          51.79          32.23           7.33         -17.43          158.0          19.89         -129.7          41.52          96.53
     0.295              -57.07          32.28           51.8          32.23          7.329         -17.43          158.0           19.9         -129.7          41.53          96.53
    0.3442              -57.06          32.28           51.8          32.24          7.328         -17.43          157.9          19.91         -129.7          41.53          96.54
    0.3934              -57.06          32.27           51.8          32.25          7.327         -17.42          157.9          19.92         -129.7          41.53          96.55
    0.4426              -57.06          32.27           51.8          32.25          7.326         -17.42          157.9          19.93         -129.7          41.54          96.56
    0.4917              -57.06          32.27          51.81          32.26          7.325         -17.41          157.9          19.94         -129.7          41.54          96.57
    0.5409              -57.06          32.26          51.81          32.27          7.324         -17.41          157.8          19.95         -129.7          41.54          96.59
    0.5901              -57.06          32.26          51.81          32.28          7.323          -17.4          157.8          19.96         -129.7          41.55           96.6
    0.6392              -57.06          32.26          51.82          32.29          7.321         -17.39          157.7          19.98         -129.7          41.55          96.61
    0.6884              -57.05          32.25          51.82           32.3           7.32         -17.39          157.7          19.99         -129.7          41.56          96.63
    0.7376              -57.05          32.25          51.83          32.31          7.318         -17.38          157.6          20.01         -129.7          41.56          96.65
    0.7868              -57.05          32.24          51.83          32.32          7.317         -17.37          157.6          20.03         -129.6          41.57          96.66
    0.8359              -57.05          32.24          51.84          32.33          7.315         -17.36          157.5          20.04         -129.6          41.58          96.68
    0.8851              -57.04          32.23          51.84          32.35          7.313         -17.35          157.5          20.07         -129.6          41.58           96.7
    0.9343              -57.04          32.22          51.85          32.36          7.311         -17.34          157.4          20.09         -129.6          41.59          96.73
    0.9835              -57.04          32.21          51.86          32.38          7.308         -17.33          157.3          20.11         -129.6           41.6          96.75
     1.033              -57.04          32.21          51.86           32.4          7.305         -17.32          157.2          20.14         -129.6          41.61          96.78
     1.082              -57.03           32.2          51.87          32.42          7.302          -17.3          157.2          20.17         -129.6          41.62          96.81
     1.131              -57.03          32.18          51.88          32.45          7.299         -17.29          157.1          20.21         -129.6          41.63          96.85
      1.18              -57.02          32.17          51.89          32.47          7.295         -17.27          156.9          20.24         -129.6          41.65          96.89
     1.229              -57.02          32.16           51.9           32.5          7.291         -17.25          156.8          20.29         -129.6          41.66          96.93
     1.278              -57.01          32.15          51.92          32.53          7.287         -17.23          156.7          20.33         -129.6          41.68          96.98
     1.328               -57.0          32.13          51.93          32.57          7.282          -17.2          156.5          20.38         -129.6          41.69          97.03
     1.377               -57.0          32.11          51.95          32.61          7.276         -17.17          156.3          20.44         -129.6          41.72          97.09
     1.426              -56.99          32.09          51.96          32.66          7.269         -17.14          156.1          20.51         -129.6          41.74          97.16
     1.475              -56.98          32.07          51.99          32.71          7.262         -17.11          155.9          20.59         -129.6          41.77          97.24
     1.524              -56.97          32.04          52.01          32.77          7.253         -17.06          155.6          20.68         -129.6           41.8          97.33
     1.574              -56.95          32.01          52.04          32.84          7.243         -17.02          155.3          20.78         -129.6          41.83          97.44
     1.623              -56.94          31.97          52.07          32.93          7.231         -16.96          155.0           20.9         -129.5          41.87          97.56
     1.672              -56.92          31.92          52.11          33.02          7.218          -16.9          154.5          21.04         -129.5          41.92           97.7
     1.721               -56.9          31.87          52.15          33.14          7.202         -16.82          154.1           21.2         -129.5          41.98          97.87
      1.77              -56.87          31.81          52.21          33.27          7.183         -16.73          153.5           21.4         -129.5          42.05          98.07
     1.819              -56.84          31.74          52.27          33.43           7.16         -16.62          152.8          21.63         -129.4          42.13          98.31
     1.869              -56.81          31.65          52.35          33.63          7.132         -16.49          151.9          21.92         -129.4          42.23           98.6
     1.918              -56.76          31.54          52.44          33.87          7.098         -16.32          150.9          22.26         -129.4          42.35          98.95
     1.967              -56.71          31.41          52.56          34.16          7.057         -16.12          149.6          22.69         -129.3          42.49          99.39
     2.016              -56.64          31.24           52.7          34.53          7.005         -15.88          148.0          23.22         -129.2          42.68          99.93
     2.065              -56.56          31.03          52.88           35.0          6.939         -15.56          146.0           23.9         -129.2          42.91          100.6
     2.114              -56.45          30.77          53.12          35.59          6.856         -15.16          143.4          24.75         -129.0          43.21          101.5
     2.164              -56.31          30.43          53.41          36.34           6.75         -14.65          140.2          25.84         -128.9          43.58          102.6
     2.213              -56.13          29.99          53.79          37.31          6.613          -14.0          136.0          27.24         -128.7          44.07          104.0
     2.262               -55.9          29.43          54.28          38.55          6.439         -13.16          130.6          29.03         -128.5          44.69          105.9
     2.311              -55.61          28.73          54.89           40.1          6.219         -12.11          123.8          31.29         -128.2          45.47          108.2
      2.36              -55.26          27.88          55.64           42.0          5.952         -10.83          115.6          34.03         -127.9          46.42          111.0
     2.409              -54.86          26.89          56.51          44.19          5.642          -9.34          106.1          37.21         -127.5          47.52          114.2
     2.459              -54.42          25.81          57.44          46.57          5.306         -7.731          95.75          40.65         -127.0          48.71          117.8
     2.508              -53.98          24.74          58.38          48.95          4.971         -6.122          85.43           44.1         -126.6           49.9          121.3
     2.557              -53.57          23.75          59.24          51.15          4.661         -4.636          75.89          47.28         -126.2          51.01          124.5
     2.606              -53.22          22.89          59.99          53.05          4.393         -3.354          67.67          50.02         -125.8          51.96          127.3
     2.655              -52.94          22.19           60.6           54.6          4.174         -2.302          60.92          52.27         -125.5          52.74          129.6
     2.704              -52.71          21.63          61.09          55.84          3.999         -1.465          55.55          54.06         -125.3          53.36          131.5
     2.754              -52.53           21.2          61.47          56.81          3.863        -0.8101          51.35          55.47         -125.1          53.84          132.9
     2.803              -52.39          20.86          61.77          57.56          3.756        -0.2996          48.07          56.56         -125.0          54.22          134.0
     2.852              -52.28          20.59           62.0          58.15          3.673        0.09916          45.51          57.41         -124.9          54.51          134.9
     2.901              -52.19          20.38          62.18          58.62          3.608         0.4129           43.5          58.08         -124.8          54.75          135.6
      2.95              -52.13          20.22          62.33          58.98          3.556         0.6619           41.9          58.62         -124.7          54.93          136.1
       3.0              -52.07          20.08          62.44          59.28          3.514         0.8616          40.62          59.04         -124.7          55.08          136.5
     3.049              -52.03          19.97          62.54          59.52           3.48          1.023          39.58          59.39         -124.6           55.2          136.9
     3.098              -51.99          19.89          62.62          59.72          3.453          1.156          38.73          59.67         -124.6           55.3          137.2
     3.147              -51.96          19.81          62.68          59.88           3.43          1.265          38.03          59.91         -124.6          55.38          137.4
